<svg width="64" height="57" viewBox="0 0 64 57" fill="none" xmlns="http://www.w3.org/2000/svg">
<path fill-rule="evenodd" clip-rule="evenodd" d="M25.7743 6.01438C25.1885 6.60016 25.1885 7.54297 25.1885 9.42859V14.2857H31.1593C32.2638 14.2857 33.1593 15.1812 33.1593 16.2857C33.1593 17.3903 32.2638 18.2857 31.1593 18.2857H25.1885V27.8572H31.1593C32.2638 27.8572 33.1593 28.7526 33.1593 29.8572C33.1593 30.9617 32.2638 31.8572 31.1593 31.8572H25.1885V41.4286H31.1593C32.2638 41.4286 33.1593 42.324 33.1593 43.4286C33.1593 44.5332 32.2638 45.4286 31.1593 45.4286H25.1885V47.5714C25.1885 49.4571 25.1885 50.3999 25.7743 50.9857C26.3601 51.5714 27.3029 51.5714 29.1885 51.5714H60.0003C61.8859 51.5714 62.8287 51.5714 63.4145 50.9857C64.0003 50.3999 64.0003 49.4571 64.0003 47.5714V9.42859C64.0003 7.54297 64.0003 6.60016 63.4145 6.01438C62.8287 5.42859 61.8859 5.42859 60.0003 5.42859H29.1885C27.3029 5.42859 26.3601 5.42859 25.7743 6.01438ZM52.0578 22.7141C51.5055 22.7141 51.0578 22.2664 51.0578 21.7141V16.2855C51.0578 15.7332 51.5055 15.2855 52.0578 15.2855C52.6101 15.2855 53.0578 15.7332 53.0578 16.2855V21.7141C53.0578 22.2664 52.6101 22.7141 52.0578 22.7141ZM19.217 15.2857C18.6648 15.2857 18.217 15.7334 18.217 16.2857C18.217 16.838 18.6648 17.2857 19.217 17.2857H31.1591C31.7114 17.2857 32.1591 16.838 32.1591 16.2857C32.1591 15.7334 31.7114 15.2857 31.1591 15.2857H19.217ZM19.217 28.8572C18.6648 28.8572 18.217 29.3049 18.217 29.8572C18.217 30.4094 18.6648 30.8572 19.217 30.8572H31.1591C31.7114 30.8572 32.1591 30.4094 32.1591 29.8572C32.1591 29.3049 31.7114 28.8572 31.1591 28.8572H19.217ZM19.217 42.4286C18.6648 42.4286 18.217 42.8763 18.217 43.4286C18.217 43.9809 18.6648 44.4286 19.217 44.4286H31.1591C31.7114 44.4286 32.1591 43.9809 32.1591 43.4286C32.1591 42.8763 31.7114 42.4286 31.1591 42.4286H19.217Z" fill="white"/>
</svg>
