<svg width="44" height="35" viewBox="0 0 44 35" fill="none" xmlns="http://www.w3.org/2000/svg">
<path d="M22.5751 17.9492C23.5978 17.0062 24.4181 15.8399 24.9803 14.5294C25.5425 13.219 25.8334 11.795 25.8334 10.3542C25.8334 7.64676 24.8237 5.05023 23.0265 3.1358C21.2293 1.22136 18.7917 0.145844 16.2501 0.145844C13.7084 0.145844 11.2709 1.22136 9.47364 3.1358C7.67642 5.05023 6.66675 7.64676 6.66675 10.3542C6.66673 11.795 6.9577 13.219 7.51991 14.5294C8.08211 15.8399 8.90239 17.0062 9.92508 17.9492C7.24202 19.2434 4.96564 21.3333 3.36813 23.9691C1.77061 26.6049 0.919569 29.6751 0.916748 32.8125C0.916748 33.354 1.11868 33.8733 1.47813 34.2562C1.83757 34.6391 2.32508 34.8542 2.83341 34.8542C3.34175 34.8542 3.82926 34.6391 4.1887 34.2562C4.54815 33.8733 4.75008 33.354 4.75008 32.8125C4.75008 29.5636 5.96169 26.4478 8.11835 24.1505C10.275 21.8531 13.2001 20.5625 16.2501 20.5625C19.3001 20.5625 22.2251 21.8531 24.3818 24.1505C26.5385 26.4478 27.7501 29.5636 27.7501 32.8125C27.7501 33.354 27.952 33.8733 28.3115 34.2562C28.6709 34.6391 29.1584 34.8542 29.6667 34.8542C30.1751 34.8542 30.6626 34.6391 31.022 34.2562C31.3815 33.8733 31.5834 33.354 31.5834 32.8125C31.5806 29.6751 30.7295 26.6049 29.132 23.9691C27.5345 21.3333 25.2581 19.2434 22.5751 17.9492V17.9492ZM16.2501 16.4792C15.1128 16.4792 14.0011 16.12 13.0556 15.4469C12.11 14.7739 11.373 13.8173 10.9378 12.6981C10.5026 11.5789 10.3887 10.3474 10.6106 9.15925C10.8324 7.97111 11.3801 6.87974 12.1842 6.02315C12.9884 5.16655 14.0129 4.5832 15.1283 4.34687C16.2437 4.11053 17.3998 4.23183 18.4505 4.69542C19.5012 5.159 20.3992 5.94406 21.031 6.95131C21.6628 7.95856 22.0001 9.14277 22.0001 10.3542C22.0001 11.9786 21.3943 13.5365 20.3159 14.6852C19.2376 15.8339 17.7751 16.4792 16.2501 16.4792ZM34.9184 17.1325C36.145 15.6611 36.9463 13.8435 37.2257 11.8984C37.5051 9.95324 37.2509 7.96354 36.4935 6.16876C35.7361 4.37398 34.5079 2.85063 32.9566 1.78208C31.4054 0.713529 29.5974 0.145318 27.7501 0.145844C27.2417 0.145844 26.7542 0.360947 26.3948 0.743834C26.0353 1.12672 25.8334 1.64603 25.8334 2.18751C25.8334 2.72899 26.0353 3.2483 26.3948 3.63119C26.7542 4.01407 27.2417 4.22918 27.7501 4.22918C29.2751 4.22918 30.7376 4.87449 31.8159 6.02315C32.8943 7.17181 33.5001 8.72973 33.5001 10.3542C33.4974 11.4265 33.2304 12.4794 32.7259 13.4073C32.2213 14.3353 31.4969 15.1059 30.6251 15.6421C30.3409 15.8167 30.1036 16.0661 29.9358 16.3664C29.768 16.6666 29.6754 17.0078 29.6667 17.3571C29.6587 17.7037 29.7337 18.0468 29.8846 18.354C30.0355 18.6611 30.2574 18.9223 30.5292 19.1129L31.2767 19.6438L31.5259 19.7867C33.8363 20.9539 35.7853 22.8002 37.1436 25.1079C38.5019 27.4156 39.2128 30.0888 39.1926 32.8125C39.1926 33.354 39.3945 33.8733 39.754 34.2562C40.1134 34.6391 40.6009 34.8542 41.1092 34.8542C41.6176 34.8542 42.1051 34.6391 42.4645 34.2562C42.824 33.8733 43.0259 33.354 43.0259 32.8125C43.0416 29.6794 42.3049 26.5941 40.8859 23.8497C39.4669 21.1053 37.4127 18.793 34.9184 17.1325V17.1325Z" fill="white"/>
</svg>
