<svg width="45" height="41" viewBox="0 0 45 41" fill="none" xmlns="http://www.w3.org/2000/svg">
<path d="M22.9887 8.11129C22.8578 7.99725 22.6837 7.93359 22.5027 7.93359C22.3216 7.93359 22.1475 7.99725 22.0166 8.11129L5.83597 22.1946C5.76725 22.2545 5.71258 22.3265 5.67527 22.4062C5.63795 22.4859 5.61877 22.5716 5.61888 22.6583L5.61624 35.876C5.61624 36.5556 5.91256 37.2074 6.44 37.6879C6.96745 38.1685 7.68282 38.4385 8.42874 38.4385H16.875C17.248 38.4385 17.6057 38.3035 17.8694 38.0632C18.1331 37.8229 18.2813 37.497 18.2813 37.1572V26.2666C18.2813 26.0967 18.3554 25.9337 18.4872 25.8136C18.6191 25.6935 18.7979 25.626 18.9844 25.626H26.0157C26.2021 25.626 26.381 25.6935 26.5128 25.8136C26.6447 25.9337 26.7188 26.0967 26.7188 26.2666V37.1572C26.7188 37.497 26.8669 37.8229 27.1307 38.0632C27.3944 38.3035 27.7521 38.4385 28.125 38.4385H36.5678C37.3137 38.4385 38.0291 38.1685 38.5565 37.6879C39.084 37.2074 39.3803 36.5556 39.3803 35.876V22.6583C39.3804 22.5716 39.3612 22.4859 39.3239 22.4062C39.2866 22.3265 39.2319 22.2545 39.1632 22.1946L22.9887 8.11129Z" fill="#FFFBFF"/>
<path d="M43.1474 19.5535L36.5732 13.8231V5.12744C36.5732 4.78763 36.4251 4.46174 36.1613 4.22146C35.8976 3.98118 35.5399 3.84619 35.167 3.84619H30.9482C30.5753 3.84619 30.2176 3.98118 29.9539 4.22146C29.6901 4.46174 29.542 4.78763 29.542 5.12744V7.68994L24.4514 3.25521C23.975 2.81639 23.2666 2.56494 22.5011 2.56494C21.7382 2.56494 21.0315 2.81639 20.5552 3.25602L1.86084 19.5519C1.31416 20.0324 1.24561 20.8228 1.74307 21.3433C1.86799 21.4746 2.02094 21.5815 2.19263 21.6573C2.36431 21.7331 2.55113 21.7763 2.74172 21.7843C2.9323 21.7922 3.12267 21.7647 3.30123 21.7035C3.47979 21.6423 3.64281 21.5486 3.78037 21.4281L22.0177 5.55025C22.1485 5.43621 22.3226 5.37255 22.5037 5.37255C22.6848 5.37255 22.8589 5.43621 22.9897 5.55025L41.2288 21.4281C41.4975 21.6629 41.8573 21.791 42.2295 21.7844C42.6017 21.7778 42.9558 21.637 43.2142 21.3929C43.7539 20.8836 43.7091 20.0428 43.1474 19.5535Z" fill="#FFFBFF"/>
</svg>
