<svg width="47" height="52" viewBox="0 0 47 52" fill="none" xmlns="http://www.w3.org/2000/svg">
<path d="M18.6043 22.75H23.5001C24.0195 22.75 24.5176 22.5217 24.8848 22.1154C25.2521 21.7091 25.4584 21.158 25.4584 20.5833C25.4584 20.0087 25.2521 19.4576 24.8848 19.0513C24.5176 18.6449 24.0195 18.4167 23.5001 18.4167H21.5418V17.3333C21.5418 16.7587 21.3354 16.2076 20.9682 15.8013C20.6009 15.3949 20.1028 15.1667 19.5834 15.1667C19.064 15.1667 18.5659 15.3949 18.1987 15.8013C17.8314 16.2076 17.6251 16.7587 17.6251 17.3333V18.525C16.4353 18.7923 15.3776 19.5392 14.6575 20.6207C13.9375 21.7022 13.6063 23.0412 13.7283 24.3777C13.8503 25.7142 14.4168 26.9528 15.3179 27.8532C16.2189 28.7535 17.3901 29.2513 18.6043 29.25H20.5626C20.8223 29.25 21.0713 29.3641 21.255 29.5673C21.4386 29.7705 21.5418 30.046 21.5418 30.3333C21.5418 30.6206 21.4386 30.8962 21.255 31.0994C21.0713 31.3025 20.8223 31.4167 20.5626 31.4167H15.6668C15.1474 31.4167 14.6493 31.6449 14.282 32.0513C13.9148 32.4576 13.7084 33.0087 13.7084 33.5833C13.7084 34.158 13.9148 34.7091 14.282 35.1154C14.6493 35.5217 15.1474 35.75 15.6668 35.75H17.6251V36.8333C17.6251 37.408 17.8314 37.9591 18.1987 38.3654C18.5659 38.7717 19.064 39 19.5834 39C20.1028 39 20.6009 38.7717 20.9682 38.3654C21.3354 37.9591 21.5418 37.408 21.5418 36.8333V35.6417C22.7316 35.3743 23.7892 34.6274 24.5093 33.5459C25.2294 32.4644 25.5606 31.1254 25.4386 29.7889C25.3165 28.4525 24.75 27.2138 23.849 26.3135C22.948 25.4131 21.7767 24.9153 20.5626 24.9167H18.6043C18.3446 24.9167 18.0955 24.8025 17.9119 24.5994C17.7283 24.3962 17.6251 24.1206 17.6251 23.8333C17.6251 23.546 17.7283 23.2705 17.9119 23.0673C18.0955 22.8641 18.3446 22.75 18.6043 22.75ZM41.1251 26H35.2501V6.49999C35.2515 6.1182 35.1616 5.74279 34.9897 5.41177C34.8177 5.08075 34.5698 4.80588 34.2709 4.61499C33.9732 4.42482 33.6355 4.32471 33.2918 4.32471C32.948 4.32471 32.6103 4.42482 32.3126 4.61499L26.4376 8.34165L20.5626 4.61499C20.2649 4.42482 19.9272 4.32471 19.5834 4.32471C19.2397 4.32471 18.902 4.42482 18.6043 4.61499L12.7293 8.34165L6.85426 4.61499C6.55656 4.42482 6.21886 4.32471 5.8751 4.32471C5.53134 4.32471 5.19363 4.42482 4.89593 4.61499C4.59708 4.80588 4.34913 5.08075 4.17718 5.41177C4.00523 5.74279 3.91539 6.1182 3.91676 6.49999V41.1667C3.91676 42.8906 4.53574 44.5439 5.63751 45.7628C6.73929 46.9818 8.23362 47.6667 9.79176 47.6667H37.2084C38.7666 47.6667 40.2609 46.9818 41.3627 45.7628C42.4645 44.5439 43.0834 42.8906 43.0834 41.1667V28.1667C43.0834 27.592 42.8771 27.0409 42.5098 26.6346C42.1426 26.2283 41.6445 26 41.1251 26ZM9.79176 43.3333C9.27238 43.3333 8.77427 43.105 8.40701 42.6987C8.03975 42.2924 7.83343 41.7413 7.83343 41.1667V10.2483L11.7501 12.7183C12.0523 12.893 12.3883 12.9842 12.7293 12.9842C13.0703 12.9842 13.4062 12.893 13.7084 12.7183L19.5834 8.99165L25.4584 12.7183C25.7607 12.893 26.0966 12.9842 26.4376 12.9842C26.7786 12.9842 27.1145 12.893 27.4168 12.7183L31.3334 10.2483V41.1667C31.3387 41.9058 31.4579 42.6385 31.6859 43.3333H9.79176ZM39.1668 41.1667C39.1668 41.7413 38.9604 42.2924 38.5932 42.6987C38.2259 43.105 37.7278 43.3333 37.2084 43.3333C36.689 43.3333 36.1909 43.105 35.8237 42.6987C35.4564 42.2924 35.2501 41.7413 35.2501 41.1667V30.3333H39.1668V41.1667Z" fill="white"/>
</svg>
