<svg width="49" height="55" viewBox="0 0 49 55" fill="none" xmlns="http://www.w3.org/2000/svg">
<path d="M3.06407 39.6554C3.06374 41.2218 3.62793 42.7241 4.63252 43.8318C5.63712 44.9396 6.99982 45.562 8.42085 45.5622L40.569 45.5665C41.99 45.5667 43.353 44.9447 44.358 43.8372C45.3631 42.7297 45.9279 41.2276 45.9282 39.6612L45.9316 23.4194L3.06747 23.4136L3.06407 39.6554ZM9.38055 31.6408C9.38073 30.8016 9.68331 29.9969 10.2217 29.4036C10.7602 28.8103 11.4903 28.4771 12.2516 28.4772L16.8442 28.4778C17.6054 28.4779 18.3355 28.8114 18.8736 29.4048C19.4118 29.9982 19.714 30.803 19.7139 31.6422L19.7134 33.7515C19.7133 34.5907 19.4107 35.3954 18.8723 35.9887C18.3338 36.582 17.6037 36.9152 16.8424 36.9151L12.2498 36.9145C11.4885 36.9144 10.7585 36.5809 10.2204 35.9875C9.68218 35.3941 9.37994 34.5893 9.38011 33.7501L9.38055 31.6408Z" fill="white"/>
<path d="M40.5767 8.44109L8.42862 8.43676C7.00758 8.43657 5.64462 9.05863 4.63957 10.1661C3.63451 11.2736 3.06969 12.7757 3.06937 14.3421L3.06879 17.0843L45.9329 17.09L45.9335 14.3479C45.9338 12.7815 45.3696 11.2792 44.3651 10.1715C43.3605 9.06372 41.9978 8.44129 40.5767 8.44109Z" fill="white"/>
</svg>
