<svg width="45" height="49" viewBox="0 0 45 49" fill="none" xmlns="http://www.w3.org/2000/svg">
<path d="M7.5 14.6812C7.5 14.4887 7.5 14.3925 7.5341 14.3049C7.56819 14.2174 7.63329 14.1465 7.76347 14.0048L11.9363 9.46104C12.5219 8.82336 12.8147 8.50452 13.1992 8.33559C13.5837 8.16666 14.0166 8.16666 14.8824 8.16666H30.1176C30.9834 8.16666 31.4163 8.16666 31.8008 8.33559C32.1853 8.50452 32.4781 8.82336 33.0637 9.46104L37.2365 14.0048C37.3667 14.1465 37.4318 14.2174 37.4659 14.3049C37.5 14.3925 37.5 14.4887 37.5 14.6812V16.3333H7.5V14.6812Z" stroke="white" stroke-width="2"/>
<path fill-rule="evenodd" clip-rule="evenodd" d="M39.375 16.3333H5.625V38.875C5.625 40.7606 5.625 41.7034 6.21079 42.2892C6.79657 42.875 7.73938 42.875 9.625 42.875H35.375C37.2606 42.875 38.2034 42.875 38.7892 42.2892C39.375 41.7034 39.375 40.7606 39.375 38.875V16.3333ZM17.875 22.4583C17.875 21.9061 17.4273 21.4583 16.875 21.4583C16.3227 21.4583 15.875 21.9061 15.875 22.4583C15.875 24.3218 16.5541 26.1243 17.786 27.4658C19.0206 28.8101 20.7141 29.5833 22.5 29.5833C24.2859 29.5833 25.9794 28.8101 27.214 27.4658C28.4459 26.1243 29.125 24.3218 29.125 22.4583C29.125 21.9061 28.6773 21.4583 28.125 21.4583C27.5727 21.4583 27.125 21.9061 27.125 22.4583C27.125 23.8438 26.6188 25.1571 25.7409 26.113C24.8657 27.066 23.6978 27.5833 22.5 27.5833C21.3022 27.5833 20.1343 27.066 19.2591 26.113C18.3812 25.1571 17.875 23.8438 17.875 22.4583Z" fill="white"/>
</svg>
