<svg width="54" height="50" viewBox="0 0 54 50" fill="none" xmlns="http://www.w3.org/2000/svg">
<path d="M10.9687 48.4387H7.59375C6.92242 48.4387 6.27859 48.1918 5.80389 47.7522C5.32918 47.3127 5.0625 46.7166 5.0625 46.095V32.0325C5.0625 31.4109 5.32918 30.8147 5.80389 30.3752C6.27859 29.9357 6.92242 29.6887 7.59375 29.6887H10.9687C11.6401 29.6887 12.2839 29.9357 12.7586 30.3752C13.2333 30.8147 13.5 31.4109 13.5 32.0325V46.095C13.5 46.7166 13.2333 47.3127 12.7586 47.7522C12.2839 48.1918 11.6401 48.4387 10.9687 48.4387Z" fill="white"/>
<path d="M34.5937 48.436H31.2187C30.5474 48.436 29.9036 48.1891 29.4289 47.7496C28.9542 47.31 28.6875 46.7139 28.6875 46.0923V22.6548C28.6875 22.0332 28.9542 21.437 29.4289 20.9975C29.9036 20.558 30.5474 20.311 31.2187 20.311H34.5937C35.2651 20.311 35.9089 20.558 36.3836 20.9975C36.8583 21.437 37.125 22.0332 37.125 22.6548V46.0923C37.125 46.7139 36.8583 47.31 36.3836 47.7496C35.9089 48.1891 35.2651 48.436 34.5937 48.436Z" fill="white"/>
<path d="M46.4062 48.4372H43.0312C42.3599 48.4372 41.7161 48.1903 41.2414 47.7508C40.7667 47.3112 40.5 46.7151 40.5 46.0935V11.7185C40.5 11.0969 40.7667 10.5008 41.2414 10.0612C41.7161 9.62169 42.3599 9.37476 43.0312 9.37476H46.4062C47.0776 9.37476 47.7214 9.62169 48.1961 10.0612C48.6708 10.5008 48.9375 11.0969 48.9375 11.7185V46.0935C48.9375 46.7151 48.6708 47.3112 48.1961 47.7508C47.7214 48.1903 47.0776 48.4372 46.4062 48.4372Z" fill="white"/>
<path d="M22.7812 48.4366H19.4062C18.7349 48.4366 18.0911 48.1897 17.6164 47.7502C17.1417 47.3106 16.875 46.7145 16.875 46.0929V3.9054C16.875 3.28379 17.1417 2.68765 17.6164 2.24811C18.0911 1.80858 18.7349 1.56165 19.4062 1.56165H22.7812C23.4526 1.56165 24.0964 1.80858 24.5711 2.24811C25.0458 2.68765 25.3125 3.28379 25.3125 3.9054V46.0929C25.3125 46.7145 25.0458 47.3106 24.5711 47.7502C24.0964 48.1897 23.4526 48.4366 22.7812 48.4366Z" fill="white"/>
</svg>
