<svg width="55" height="41" viewBox="0 0 55 41" fill="none" xmlns="http://www.w3.org/2000/svg">
<rect width="55" height="41" fill="#E5E5E5"/>
<g clip-path="url(#clip0_0_1)">
<rect width="1925" height="1205" transform="translate(-25 -192)" fill="#D9DADA"/>
<g filter="url(#filter0_d_0_1)">
<g opacity="0.7">
<g filter="url(#filter1_d_0_1)">
<path d="M-25 -192H292V1013H146.06H-25V-192Z" fill="#021266"/>
</g>
</g>
<path d="M10.9929 39.7197H7.61043C6.93762 39.7197 6.29236 39.5172 5.81661 39.1568C5.34086 38.7964 5.07358 38.3076 5.07358 37.7979V26.2666C5.07358 25.7569 5.34086 25.2681 5.81661 24.9076C6.29236 24.5472 6.93762 24.3447 7.61043 24.3447H10.9929C11.6657 24.3447 12.311 24.5472 12.7867 24.9076C13.2625 25.2681 13.5297 25.7569 13.5297 26.2666V37.7979C13.5297 38.3076 13.2625 38.7964 12.7867 39.1568C12.311 39.5172 11.6657 39.7197 10.9929 39.7197V39.7197Z" fill="white"/>
<path d="M34.6703 39.7175H31.2878C30.615 39.7175 29.9697 39.515 29.494 39.1546C29.0182 38.7942 28.7509 38.3054 28.7509 37.7956V18.5769C28.7509 18.0672 29.0182 17.5784 29.494 17.2179C29.9697 16.8575 30.615 16.655 31.2878 16.655H34.6703C35.3431 16.655 35.9883 16.8575 36.4641 17.2179C36.9398 17.5784 37.2071 18.0672 37.2071 18.5769V37.7956C37.2071 38.3054 36.9398 38.7942 36.4641 39.1546C35.9883 39.515 35.3431 39.7175 34.6703 39.7175V39.7175Z" fill="white"/>
<path d="M46.5088 39.7185H43.1263C42.4535 39.7185 41.8083 39.516 41.3325 39.1556C40.8568 38.7952 40.5895 38.3063 40.5895 37.7966V9.60913C40.5895 9.09942 40.8568 8.61058 41.3325 8.25016C41.8083 7.88974 42.4535 7.68726 43.1263 7.68726H46.5088C47.1816 7.68726 47.8269 7.88974 48.3026 8.25016C48.7784 8.61058 49.0457 9.09942 49.0457 9.60913V37.7966C49.0457 38.3063 48.7784 38.7952 48.3026 39.1556C47.8269 39.516 47.1816 39.7185 46.5088 39.7185V39.7185Z" fill="white"/>
<path d="M22.8316 39.718H19.4491C18.7763 39.718 18.131 39.5155 17.6553 39.1551C17.1795 38.7947 16.9123 38.3058 16.9123 37.7961V3.20239C16.9123 2.69268 17.1795 2.20384 17.6553 1.84342C18.131 1.483 18.7763 1.28052 19.4491 1.28052H22.8316C23.5044 1.28052 24.1496 1.483 24.6254 1.84342C25.1011 2.20384 25.3684 2.69268 25.3684 3.20239V37.7961C25.3684 38.3058 25.1011 38.7947 24.6254 39.1551C24.1496 39.5155 23.5044 39.718 22.8316 39.718V39.718Z" fill="white"/>
</g>
</g>
<defs>
<filter id="filter0_d_0_1" x="-39" y="-201" width="345" height="1233" filterUnits="userSpaceOnUse" color-interpolation-filters="sRGB">
<feFlood flood-opacity="0" result="BackgroundImageFix"/>
<feColorMatrix in="SourceAlpha" type="matrix" values="0 0 0 0 0 0 0 0 0 0 0 0 0 0 0 0 0 0 127 0" result="hardAlpha"/>
<feOffset dy="5"/>
<feGaussianBlur stdDeviation="7"/>
<feColorMatrix type="matrix" values="0 0 0 0 0 0 0 0 0 0 0 0 0 0 0 0 0 0 0.05 0"/>
<feBlend mode="normal" in2="BackgroundImageFix" result="effect1_dropShadow_0_1"/>
<feBlend mode="normal" in="SourceGraphic" in2="effect1_dropShadow_0_1" result="shape"/>
</filter>
<filter id="filter1_d_0_1" x="-39" y="-201" width="345" height="1233" filterUnits="userSpaceOnUse" color-interpolation-filters="sRGB">
<feFlood flood-opacity="0" result="BackgroundImageFix"/>
<feColorMatrix in="SourceAlpha" type="matrix" values="0 0 0 0 0 0 0 0 0 0 0 0 0 0 0 0 0 0 127 0" result="hardAlpha"/>
<feOffset dy="5"/>
<feGaussianBlur stdDeviation="7"/>
<feColorMatrix type="matrix" values="0 0 0 0 0 0 0 0 0 0 0 0 0 0 0 0 0 0 0.05 0"/>
<feBlend mode="normal" in2="BackgroundImageFix" result="effect1_dropShadow_0_1"/>
<feBlend mode="normal" in="SourceGraphic" in2="effect1_dropShadow_0_1" result="shape"/>
</filter>
<clipPath id="clip0_0_1">
<rect width="1925" height="1205" fill="white" transform="translate(-25 -192)"/>
</clipPath>
</defs>
</svg>
