<svg width="54" height="51" viewBox="0 0 54 51" fill="none" xmlns="http://www.w3.org/2000/svg">
<path fill-rule="evenodd" clip-rule="evenodd" d="M31.2691 4.5066C31.5543 4.7632 31.5994 5.1886 31.6895 6.03941L32.0601 9.54003V9.54004C32.2271 11.1166 32.3105 11.9049 32.8503 12.1355C33.3901 12.3661 34.0174 11.8814 35.2719 10.912L38.3748 8.5143C39.0206 8.0153 39.3435 7.7658 39.7122 7.78405C40.081 7.80231 40.3776 8.08249 40.971 8.64285L44.6989 12.1637C45.3579 12.7861 45.6874 13.0973 45.7075 13.4984C45.7276 13.8996 45.4308 14.2422 44.8373 14.9273L42.6698 17.4292C41.5559 18.715 40.999 19.3579 41.226 19.924C41.4529 20.49 42.2998 20.57 43.9934 20.7299L47.6881 21.0789C48.5488 21.1602 48.9792 21.2008 49.2396 21.487C49.5 21.7731 49.5 22.2054 49.5 23.07V27.93C49.5 28.7946 49.5 29.2269 49.2396 29.513C48.9792 29.7992 48.5488 29.8398 47.6881 29.9211L43.9943 30.27C42.3006 30.4299 41.4538 30.5099 41.2268 31.076C40.9998 31.642 41.5568 32.2849 42.6707 33.5707L44.8374 36.0718C45.4309 36.7569 45.7277 37.0994 45.7076 37.5006C45.6875 37.9018 45.358 38.213 44.699 38.8353L44.699 38.8354L40.9711 42.3562C40.3777 42.9166 40.0811 43.1967 39.7123 43.215C39.3436 43.2333 39.0207 42.9838 38.3749 42.4847L35.272 40.087C34.0175 39.1176 33.3902 38.6329 32.8504 38.8635C32.3106 39.0941 32.2272 39.8824 32.0602 41.459L31.6895 44.9606C31.5994 45.8114 31.5543 46.2368 31.2691 46.4934C30.9839 46.75 30.5562 46.75 29.7006 46.75H24.2994C23.4438 46.75 23.0161 46.75 22.7309 46.4934C22.4457 46.2368 22.4006 45.8114 22.3105 44.9606L21.9399 41.4599C21.7729 39.8833 21.6895 39.095 21.1497 38.8644C20.6099 38.6338 19.9826 39.1185 18.7281 40.0879L15.625 42.4857C14.9792 42.9847 14.6564 43.2342 14.2876 43.216C13.9188 43.1977 13.6222 42.9175 13.0289 42.3572L9.30092 38.8363C8.64193 38.2139 8.31244 37.9028 8.29235 37.5016C8.27226 37.1004 8.56901 36.7578 9.16252 36.0727L11.33 33.5707C12.4439 32.2849 13.0009 31.6421 12.7739 31.076C12.5469 30.51 11.7001 30.43 10.0064 30.2701L6.31195 29.9211C5.45118 29.8398 5.02079 29.7992 4.7604 29.513C4.5 29.2269 4.5 28.7946 4.5 27.93L4.5 23.07C4.5 22.2054 4.5 21.7731 4.7604 21.487C5.02079 21.2008 5.45118 21.1602 6.31195 21.0789L10.0073 20.7299C11.7009 20.5699 12.5478 20.4899 12.7747 19.9239C13.0017 19.3579 12.4448 18.715 11.3309 17.4292L9.16262 14.9263C8.56911 14.2412 8.27236 13.8987 8.29245 13.4975C8.31254 13.0963 8.64203 12.7851 9.30101 12.1627L13.029 8.64189C13.6223 8.08153 13.9189 7.80135 14.2877 7.78309C14.6565 7.76484 14.9793 8.01434 15.6251 8.51334L18.7282 10.9112L18.7282 10.9112C19.9827 11.8806 20.61 12.3653 21.1498 12.1347C21.6896 11.9041 21.773 11.1158 21.94 9.53921V9.53919L22.3105 6.03941C22.4006 5.1886 22.4457 4.7632 22.7309 4.5066C23.0161 4.25 23.4438 4.25 24.2994 4.25H29.7006C30.5562 4.25 30.9839 4.25 31.2691 4.5066ZM27 34C31.9706 34 36 30.1944 36 25.5C36 20.8056 31.9706 17 27 17C22.0294 17 18 20.8056 18 25.5C18 30.1944 22.0294 34 27 34Z" fill="white"/>
</svg>
